<?xml version="1.0" encoding="UTF-8"?>
<!DOCTYPE svg PUBLIC "-//W3C//DTD SVG 1.1//EN" "http://www.w3.org/Graphics/SVG/1.1/DTD/svg11.dtd">
<svg xmlns="http://www.w3.org/2000/svg" version="1.1" width="270px" height="150px" style="shape-rendering:geometricPrecision; text-rendering:geometricPrecision; image-rendering:optimizeQuality; fill-rule:evenodd; clip-rule:evenodd" xmlns:xlink="http://www.w3.org/1999/xlink">
<g><path style="opacity:0.999" fill="#fbcf0f" d="M 94.5,23.5 C 93.9569,23.56 93.6236,23.8933 93.5,24.5C 94.1799,25.8599 94.8466,27.1932 95.5,28.5C 96.9964,39.6454 98.3297,50.8121 99.5,62C 98.278,70.3919 97.1113,78.8919 96,87.5C 92.4304,88.7492 88.7637,89.7492 85,90.5C 83.6362,91.3707 82.4695,92.3707 81.5,93.5C 79.2857,91.0045 78.1191,88.0045 78,84.5C 76.3563,65.5044 75.8563,46.5044 76.5,27.5C 77.4916,27.3284 78.1583,27.6618 78.5,28.5C 77.5835,35.3324 77.5835,41.9991 78.5,48.5C 79.6585,43.2681 80.3251,37.2681 80.5,30.5C 81.0508,27.1933 81.3841,23.8599 81.5,20.5C 80.5,20.5 79.5,20.5 78.5,20.5C 77.8333,20.5 77.1667,20.5 76.5,20.5C 77.3586,18.454 78.8586,17.1206 81,16.5C 83.9511,17.9141 87.1178,18.7475 90.5,19C 92.1918,20.3073 93.5251,21.8073 94.5,23.5 Z"/></g>
<g><path style="opacity:0.481" fill="#fde681" d="M 76.5,20.5 C 77.1667,20.5 77.8333,20.5 78.5,20.5C 78.9861,23.3817 78.9861,26.0483 78.5,28.5C 78.1583,27.6618 77.4916,27.3284 76.5,27.5C 76.5,25.1667 76.5,22.8333 76.5,20.5 Z"/></g>
<g><path style="opacity:0.976" fill="#8d5a20" d="M 94.5,23.5 C 96.588,25.3356 97.9213,27.6689 98.5,30.5C 97.2223,30.2178 96.2223,29.5511 95.5,28.5C 94.8466,27.1932 94.1799,25.8599 93.5,24.5C 93.6236,23.8933 93.9569,23.56 94.5,23.5 Z"/></g>
<g><path style="opacity:0.525" fill="#eecc57" d="M 41.5,30.5 C 41.5394,31.5832 41.8728,32.5832 42.5,33.5C 41.1387,35.0284 39.972,36.6951 39,38.5C 38.7996,36.6803 37.9663,35.347 36.5,34.5C 36.9666,31.7026 38.6333,30.3692 41.5,30.5 Z"/></g>
<g><path style="opacity:0.999" fill="#facd06" d="M 41.5,30.5 C 45.5749,29.659 48.5749,30.9924 50.5,34.5C 48.023,36.4159 47.023,39.0825 47.5,42.5C 48.5,42.5 49.5,42.5 50.5,42.5C 55.4918,42.9992 60.4918,43.4992 65.5,44C 66.3805,44.7083 67.0472,45.5416 67.5,46.5C 65.7773,48.78 65.1107,51.4467 65.5,54.5C 63.0108,54.2978 60.6775,54.7978 58.5,56C 59.5,56.3333 60.5,56.6667 61.5,57C 60.1667,57.6667 58.8333,58.3333 57.5,59C 53.7778,59.2382 50.1111,59.7382 46.5,60.5C 45.113,68.5842 45.4463,76.5842 47.5,84.5C 48.4246,85.5624 49.4246,85.5624 50.5,84.5C 54.008,81.5085 57.008,81.8418 59.5,85.5C 54.1703,87.9147 48.5036,89.248 42.5,89.5C 39.9193,86.6797 38.0859,83.3464 37,79.5C 36.034,74.4776 35.2006,69.4776 34.5,64.5C 36.7049,64.1541 36.8716,63.4874 35,62.5C 33.3435,61.5159 31.6768,60.5159 30,59.5C 29.5357,60.0944 29.369,60.7611 29.5,61.5C 24.6492,58.8156 20.9826,54.9822 18.5,50C 18.5699,49.2352 18.9033,48.7352 19.5,48.5C 20.5,48.5 21.5,48.5 22.5,48.5C 24.1667,47.8333 25.8333,47.1667 27.5,46.5C 30.742,45.2896 34.0754,44.2896 37.5,43.5C 37.1373,42.8165 36.8039,42.1499 36.5,41.5C 36.5,39.1667 36.5,36.8333 36.5,34.5C 37.9663,35.347 38.7996,36.6803 39,38.5C 39.972,36.6951 41.1387,35.0284 42.5,33.5C 41.8728,32.5832 41.5394,31.5832 41.5,30.5 Z"/></g>
<g><path style="opacity:0.999" fill="#683818" d="M 50.5,34.5 C 51.6567,37.0259 51.6567,39.6926 50.5,42.5C 49.5,42.5 48.5,42.5 47.5,42.5C 47.023,39.0825 48.023,36.4159 50.5,34.5 Z"/></g>
<g><path style="opacity:0.997" fill="#70422f" d="M 80.5,30.5 C 80.3251,37.2681 79.6585,43.2681 78.5,48.5C 78.2764,42.2614 78.9431,36.2614 80.5,30.5 Z"/></g>
<g><path style="opacity:1" fill="#face0c" d="M 204.5,50.5 C 203.167,51.1667 203.167,51.8333 204.5,52.5C 206.793,62.6479 205.627,72.3146 201,81.5C 196.605,84.7379 191.772,85.4046 186.5,83.5C 186.077,89.8819 185.244,96.2153 184,102.5C 183.167,103.333 182.333,104.167 181.5,105C 175.923,105.892 170.589,107.392 165.5,109.5C 163.862,107.104 162.696,104.438 162,101.5C 160.994,88.1842 160.494,74.8509 160.5,61.5C 162.22,63.6581 163.053,66.3248 163,69.5C 163.363,66.456 163.863,63.456 164.5,60.5C 165.331,56.5239 165.497,52.5239 165,48.5C 164.617,47.944 164.117,47.6107 163.5,47.5C 163.056,50.8432 162.056,54.5099 160.5,58.5C 160.975,52.8041 160.308,47.3041 158.5,42C 159.5,41 160.5,40 161.5,39C 169.98,38.2028 177.813,40.0361 185,44.5C 186.789,43.5909 188.623,43.4242 190.5,44C 194.575,45.0827 198.575,46.416 202.5,48C 203.381,48.7083 204.047,49.5416 204.5,50.5 Z M 198.5,57.5 C 199.509,62.7961 199.676,68.1294 199,73.5C 198.626,74.4162 198.126,75.2496 197.5,76C 195.19,76.4966 192.857,76.6633 190.5,76.5C 190.683,69.363 191.016,62.363 191.5,55.5C 193.729,56.5771 196.063,57.2437 198.5,57.5 Z"/></g>
<g><path style="opacity:0.999" fill="#f9cd0d" d="M 246.5,49.5 C 244.744,50.5521 244.077,52.2188 244.5,54.5C 243.209,54.2627 242.209,54.596 241.5,55.5C 240.508,55.6716 239.842,55.3382 239.5,54.5C 239.611,53.8826 239.944,53.3826 240.5,53C 236.088,50.926 231.754,51.0927 227.5,53.5C 226.359,55.4213 226.192,57.4213 227,59.5C 227.71,60.9733 228.876,61.6399 230.5,61.5C 237.167,62.6662 242.834,65.6662 247.5,70.5C 246.5,70.5 245.5,70.5 244.5,70.5C 245.418,83.5821 239.418,89.5821 226.5,88.5C 224.316,86.4152 221.649,85.4152 218.5,85.5C 214.91,82.6008 214.91,79.4342 218.5,76C 222.55,75.3582 225.55,76.8582 227.5,80.5C 226.325,80.281 225.325,80.6143 224.5,81.5C 225.32,83.1112 226.654,83.7778 228.5,83.5C 230.486,84.7612 232.319,84.4278 234,82.5C 236.446,79.4026 236.946,76.0693 235.5,72.5C 235.516,70.5159 234.516,69.5159 232.5,69.5C 230.547,70.1556 228.547,70.4889 226.5,70.5C 224.602,69.9035 222.935,69.9035 221.5,70.5C 218.529,68.5574 216.529,65.8908 215.5,62.5C 217.185,58.2109 218.351,53.5443 219,48.5C 220.852,46.0427 222.686,43.7093 224.5,41.5C 233.448,39.7926 240.781,42.4593 246.5,49.5 Z"/></g>
<g><path style="opacity:0.914" fill="#f4d54f" d="M 36.5,41.5 C 36.8039,42.1499 37.1373,42.8165 37.5,43.5C 34.0754,44.2896 30.742,45.2896 27.5,46.5C 25.2572,45.1416 23.5905,45.8083 22.5,48.5C 21.5,48.5 20.5,48.5 19.5,48.5C 20.2423,46.5742 21.2423,44.7409 22.5,43C 27.1561,42.3345 31.8228,41.8345 36.5,41.5 Z"/></g>
<g><path style="opacity:0.31" fill="#f6d442" d="M 142.5,45.5 C 139.106,46.8768 135.773,46.5435 132.5,44.5C 128.645,45.422 124.812,46.422 121,47.5C 119.97,47.1639 119.47,46.4972 119.5,45.5C 127.055,40.3462 134.722,40.3462 142.5,45.5 Z"/></g>
<g><path style="opacity:1" fill="#805539" d="M 179.5,45.5 C 180.497,44.2875 181.497,44.4542 182.5,46C 181.423,46.4696 180.423,46.3029 179.5,45.5 Z"/></g>
<g><path style="opacity:0.996" fill="#e9e0d5" d="M 78.5,20.5 C 79.5,20.5 80.5,20.5 81.5,20.5C 81.3841,23.8599 81.0508,27.1933 80.5,30.5C 78.9431,36.2614 78.2764,42.2614 78.5,48.5C 77.5835,41.9991 77.5835,35.3324 78.5,28.5C 78.9861,26.0483 78.9861,23.3817 78.5,20.5 Z"/></g>
<g><path style="opacity:0.999" fill="#f9cd0c" d="M 142.5,45.5 C 145.167,47.5 147.5,49.8333 149.5,52.5C 148.503,52.4701 147.836,52.9701 147.5,54C 147.001,57.2529 147.668,60.4195 149.5,63.5C 148.626,65.7466 148.292,68.0799 148.5,70.5C 148.053,76.3479 145.719,81.1812 141.5,85C 138.246,86.842 134.746,87.6754 131,87.5C 127.165,87.1104 123.332,86.777 119.5,86.5C 118.833,86.5 118.167,86.5 117.5,86.5C 116.206,85.7101 115.039,84.7101 114,83.5C 112.152,79.1408 110.318,74.8075 108.5,70.5C 109.5,70.5 110.5,70.5 111.5,70.5C 111.15,65.9639 111.817,61.6306 113.5,57.5C 113.798,54.7354 114.798,52.2354 116.5,50C 114.762,50.8369 113.096,52.0036 111.5,53.5C 112.309,49.0752 114.975,46.4085 119.5,45.5C 119.47,46.4972 119.97,47.1639 121,47.5C 124.812,46.422 128.645,45.422 132.5,44.5C 135.773,46.5435 139.106,46.8768 142.5,45.5 Z M 143.5,59.5 C 144.067,61.0295 144.733,62.5295 145.5,64C 144.855,68.9825 143.521,73.8159 141.5,78.5C 138.369,80.4012 135.035,81.7345 131.5,82.5C 130.632,78.6857 129.632,75.019 128.5,71.5C 128.114,67.1236 128.781,62.9569 130.5,59C 133.764,56.4011 136.764,56.4011 139.5,59C 140.793,59.49 142.127,59.6567 143.5,59.5 Z"/></g>
<g><path style="opacity:0.878" fill="#a9844f" d="M 27.5,46.5 C 25.8333,47.1667 24.1667,47.8333 22.5,48.5C 23.5905,45.8083 25.2572,45.1416 27.5,46.5 Z"/></g>
<g><path style="opacity:0.882" fill="#fad94f" d="M 224.5,41.5 C 222.686,43.7093 220.852,46.0427 219,48.5C 218.351,53.5443 217.185,58.2109 215.5,62.5C 214.77,58.9694 214.104,55.3027 213.5,51.5C 214.597,45.4048 218.264,42.0715 224.5,41.5 Z"/></g>
<g><path style="opacity:0.996" fill="#68361e" d="M 239.5,54.5 C 236.333,54.4001 233.333,55.0668 230.5,56.5C 229.334,58.1673 229.334,59.834 230.5,61.5C 228.876,61.6399 227.71,60.9733 227,59.5C 226.192,57.4213 226.359,55.4213 227.5,53.5C 231.754,51.0927 236.088,50.926 240.5,53C 239.944,53.3826 239.611,53.8826 239.5,54.5 Z"/></g>
<g><path style="opacity:0.463" fill="#91621d" d="M 149.5,52.5 C 150.487,54.4734 151.487,56.4734 152.5,58.5C 153.11,63.1093 153.11,67.776 152.5,72.5C 150.955,71.7703 150.122,70.437 150,68.5C 149.722,69.4158 149.222,70.0825 148.5,70.5C 148.292,68.0799 148.626,65.7466 149.5,63.5C 147.668,60.4195 147.001,57.2529 147.5,54C 147.836,52.9701 148.503,52.4701 149.5,52.5 Z"/></g>
<g><path style="opacity:0.502" fill="#996b17" d="M 204.5,50.5 C 207.181,53.1918 208.514,56.5252 208.5,60.5C 207.044,57.9325 205.711,55.2658 204.5,52.5C 203.167,51.8333 203.167,51.1667 204.5,50.5 Z"/></g>
<g><path style="opacity:0.488" fill="#ffeda1" d="M 113.5,57.5 C 112.778,56.4489 111.778,55.7822 110.5,55.5C 110.328,54.5084 110.662,53.8417 111.5,53.5C 113.096,52.0036 114.762,50.8369 116.5,50C 114.798,52.2354 113.798,54.7354 113.5,57.5 Z"/></g>
<g><path style="opacity:0.031" fill="#7b4921" d="M 246.5,49.5 C 249.725,53.1554 249.059,55.8221 244.5,57.5C 242.962,57.5466 241.962,56.8799 241.5,55.5C 242.209,54.596 243.209,54.2627 244.5,54.5C 244.077,52.2188 244.744,50.5521 246.5,49.5 Z"/></g>
<g><path style="opacity:0.995" fill="#68381f" d="M 143.5,59.5 C 142.127,59.6567 140.793,59.49 139.5,59C 136.764,56.4011 133.764,56.4011 130.5,59C 128.781,62.9569 128.114,67.1236 128.5,71.5C 128.068,72.7095 127.401,73.7095 126.5,74.5C 125.054,68.4426 125.221,62.4426 127,56.5C 128.977,55.0951 131.143,54.0951 133.5,53.5C 136.859,55.5066 140.525,56.5066 144.5,56.5C 144.737,57.791 144.404,58.791 143.5,59.5 Z"/></g>
<g><path style="opacity:0.996" fill="#8f6850" d="M 163.5,47.5 C 164.117,47.6107 164.617,47.944 165,48.5C 165.497,52.5239 165.331,56.5239 164.5,60.5C 163.515,56.3656 163.182,52.0323 163.5,47.5 Z"/></g>
<g><path style="opacity:1" fill="#f1d584" d="M 163.5,47.5 C 163.182,52.0323 163.515,56.3656 164.5,60.5C 163.863,63.456 163.363,66.456 163,69.5C 163.053,66.3248 162.22,63.6581 160.5,61.5C 160.5,60.5 160.5,59.5 160.5,58.5C 162.056,54.5099 163.056,50.8432 163.5,47.5 Z"/></g>
<g><path style="opacity:0.11" fill="#733f1b" d="M 198.5,57.5 C 196.063,57.2437 193.729,56.5771 191.5,55.5C 191.016,62.363 190.683,69.363 190.5,76.5C 189.791,77.404 188.791,77.7373 187.5,77.5C 187.5,69.1667 187.5,60.8333 187.5,52.5C 191.188,53.1717 194.855,54.0051 198.5,55C 199.598,55.7697 199.598,56.603 198.5,57.5 Z"/></g>
<g><path style="opacity:0.22" fill="#ae8418" d="M 34.5,64.5 C 32.5659,63.8897 30.8993,62.8897 29.5,61.5C 29.369,60.7611 29.5357,60.0944 30,59.5C 31.6768,60.5159 33.3435,61.5159 35,62.5C 36.8716,63.4874 36.7049,64.1541 34.5,64.5 Z"/></g>
<g><path style="opacity:0.994" fill="#693721" d="M 67.5,46.5 C 70.0156,49.7536 70.0156,53.2536 67.5,57C 66.552,57.4828 65.552,57.6495 64.5,57.5C 64.67,58.8221 64.3366,59.9887 63.5,61C 59.0783,63.1036 54.4116,63.9369 49.5,63.5C 49.1497,66.7215 48.4831,69.8882 47.5,73C 48.5685,76.8532 49.5685,80.6865 50.5,84.5C 49.4246,85.5624 48.4246,85.5624 47.5,84.5C 45.4463,76.5842 45.113,68.5842 46.5,60.5C 50.1111,59.7382 53.7778,59.2382 57.5,59C 58.8333,58.3333 60.1667,57.6667 61.5,57C 60.5,56.6667 59.5,56.3333 58.5,56C 60.6775,54.7978 63.0108,54.2978 65.5,54.5C 65.1107,51.4467 65.7773,48.78 67.5,46.5 Z"/></g>
<g><path style="opacity:0.973" fill="#fadb55" d="M 110.5,55.5 C 111.778,55.7822 112.778,56.4489 113.5,57.5C 111.817,61.6306 111.15,65.9639 111.5,70.5C 110.5,70.5 109.5,70.5 108.5,70.5C 108.183,65.3284 108.849,60.3284 110.5,55.5 Z"/></g>
<g><path style="opacity:0.937" fill="#97601e" d="M 226.5,70.5 C 225.326,72.3678 225.993,73.3678 228.5,73.5C 225.543,74.5351 223.209,73.5351 221.5,70.5C 222.935,69.9035 224.602,69.9035 226.5,70.5 Z"/></g>
<g><path style="opacity:0.991" fill="#69341d" d="M 235.5,72.5 C 233.236,73.2186 230.903,73.552 228.5,73.5C 225.993,73.3678 225.326,72.3678 226.5,70.5C 228.547,70.4889 230.547,70.1556 232.5,69.5C 234.516,69.5159 235.516,70.5159 235.5,72.5 Z"/></g>
<g><path style="opacity:0.769" fill="#875a21" d="M 128.5,71.5 C 129.632,75.019 130.632,78.6857 131.5,82.5C 130.811,83.7736 129.977,83.7736 129,82.5C 128.16,79.7983 127.327,77.1317 126.5,74.5C 127.401,73.7095 128.068,72.7095 128.5,71.5 Z"/></g>
<g><path style="opacity:0.993" fill="#60301b" d="M 247.5,70.5 C 249.282,81.2742 245.115,88.6075 235,92.5C 232.116,91.883 229.283,91.2163 226.5,90.5C 226.5,89.8333 226.5,89.1667 226.5,88.5C 239.418,89.5821 245.418,83.5821 244.5,70.5C 245.5,70.5 246.5,70.5 247.5,70.5 Z"/></g>
<g><path style="opacity:0.995" fill="#613121" d="M 152.5,72.5 C 149.769,86.2257 141.436,92.2257 127.5,90.5C 124.833,89.1667 122.167,87.8333 119.5,86.5C 123.332,86.777 127.165,87.1104 131,87.5C 134.746,87.6754 138.246,86.842 141.5,85C 145.719,81.1812 148.053,76.3479 148.5,70.5C 149.222,70.0825 149.722,69.4158 150,68.5C 150.122,70.437 150.955,71.7703 152.5,72.5 Z"/></g>
<g><path style="opacity:0.451" fill="#7c4717" d="M 227.5,80.5 C 228.404,81.209 228.737,82.209 228.5,83.5C 226.654,83.7778 225.32,83.1112 224.5,81.5C 225.325,80.6143 226.325,80.281 227.5,80.5 Z"/></g>
<g><path style="opacity:0.997" fill="#643321" d="M 95.5,28.5 C 96.2223,29.5511 97.2223,30.2178 98.5,30.5C 100.273,42.8066 101.94,55.14 103.5,67.5C 103.617,70.597 102.617,73.2637 100.5,75.5C 101.348,79.4762 101.182,83.4762 100,87.5C 99.5348,88.9308 98.7014,90.0975 97.5,91C 92.6561,91.6291 88.1561,93.1291 84,95.5C 82.699,95.3613 81.8656,94.6946 81.5,93.5C 82.4695,92.3707 83.6362,91.3707 85,90.5C 88.7637,89.7492 92.4304,88.7492 96,87.5C 97.1113,78.8919 98.278,70.3919 99.5,62C 98.3297,50.8121 96.9964,39.6454 95.5,28.5 Z"/></g>
<g><path style="opacity:0.929" fill="#6a3921" d="M 59.5,85.5 C 58.6406,88.5141 56.3073,90.6807 52.5,92C 48.5369,93.1366 45.2036,92.3033 42.5,89.5C 48.5036,89.248 54.1703,87.9147 59.5,85.5 Z"/></g>
<g><path style="opacity:0.114" fill="#99641b" d="M 117.5,86.5 C 118.167,86.5 118.833,86.5 119.5,86.5C 122.167,87.8333 124.833,89.1667 127.5,90.5C 124.873,89.8951 122.207,89.3951 119.5,89C 118.619,88.2917 117.953,87.4584 117.5,86.5 Z"/></g>
<g><path style="opacity:0.086" fill="#945c1c" d="M 218.5,85.5 C 221.649,85.4152 224.316,86.4152 226.5,88.5C 226.5,89.1667 226.5,89.8333 226.5,90.5C 223.156,89.8325 220.489,88.1658 218.5,85.5 Z"/></g>
<g><path style="opacity:0.991" fill="#62331c" d="M 204.5,52.5 C 205.711,55.2658 207.044,57.9325 208.5,60.5C 209.986,69.9097 207.986,78.4097 202.5,86C 198.72,88.9646 194.887,89.1312 191,86.5C 189.21,92.6589 187.877,98.9922 187,105.5C 185.5,107.469 183.667,108.802 181.5,109.5C 177.21,108.551 173.377,109.551 170,112.5C 168.591,111.219 167.091,110.219 165.5,109.5C 170.589,107.392 175.923,105.892 181.5,105C 182.333,104.167 183.167,103.333 184,102.5C 185.244,96.2153 186.077,89.8819 186.5,83.5C 191.772,85.4046 196.605,84.7379 201,81.5C 205.627,72.3146 206.793,62.6479 204.5,52.5 Z"/></g>
<g><path style="opacity:0.854" fill="#000000" d="M 181.5,109.5 C 183.167,109.5 184.833,109.5 186.5,109.5C 186.5,114.167 186.5,118.833 186.5,123.5C 130.832,123.667 75.1657,123.5 19.5,123C 18.1667,118.667 18.1667,114.333 19.5,110C 68.1655,109.5 116.832,109.333 165.5,109.5C 167.091,110.219 168.591,111.219 170,112.5C 173.377,109.551 177.21,108.551 181.5,109.5 Z"/></g>
<g><path style="opacity:0.25" fill="#373635" d="M 208.5,109.5 C 209.496,109.414 210.329,109.748 211,110.5C 211.667,114.5 211.667,118.5 211,122.5C 209.989,123.337 208.822,123.67 207.5,123.5C 207.226,118.737 207.559,114.07 208.5,109.5 Z"/></g>
<g><path style="opacity:0.447" fill="#353430" d="M 243.5,112.5 C 248.36,112.529 250.693,115.029 250.5,120C 248.821,123.297 246.154,124.297 242.5,123C 241.643,122.311 240.977,121.478 240.5,120.5C 241.711,119.28 241.711,118.113 240.5,117C 241.222,115.249 242.222,113.749 243.5,112.5 Z"/></g>
<g><path style="opacity:0.063" fill="#494848" d="M 200.5,110.5 C 204.102,111.88 205.102,114.38 203.5,118C 203.439,119.711 204.106,121.044 205.5,122C 203.798,123.718 201.965,123.885 200,122.5C 199.73,119.776 199.23,117.109 198.5,114.5C 199.18,113.14 199.847,111.807 200.5,110.5 Z"/></g>
<g><path style="opacity:0.718" fill="#2a2927" d="M 229.5,112.5 C 237.267,112.181 239.6,115.514 236.5,122.5C 233.648,123.29 231.481,124.956 230,127.5C 228.176,122.598 228.009,117.598 229.5,112.5 Z"/></g>
<g><path style="opacity:0.6" fill="#31302f" d="M 217.5,112.5 C 224.672,112.852 226.672,116.185 223.5,122.5C 218.702,124.782 215.702,123.449 214.5,118.5C 214.984,116.199 215.984,114.199 217.5,112.5 Z M 219.5,116.5 C 220.598,117.601 220.765,118.934 220,120.5C 218.666,119.122 218.499,117.789 219.5,116.5 Z"/></g>
</svg>
